<svg width="20" height="13" viewBox="0 0 20 13" fill="none" xmlns="http://www.w3.org/2000/svg">
<path d="M16.5964 7.3569C16.2731 6.94855 16.3656 6.76688 16.5964 6.40187C16.6006 6.3977 19.2698 2.70924 19.5448 1.45837L19.5465 1.45753C19.6832 1.00168 19.5465 0.666672 18.8857 0.666672H16.6989C16.1422 0.666672 15.8855 0.954182 15.748 1.27586C15.748 1.27586 14.6347 3.94095 13.0596 5.66851C12.5513 6.16769 12.3163 6.3277 12.0387 6.3277C11.9021 6.3277 11.6896 6.16769 11.6896 5.71185V1.45753C11.6896 0.910847 11.5337 0.666672 11.0729 0.666672H7.63443C7.28525 0.666672 7.07775 0.921681 7.07775 1.15919C7.07775 1.67754 7.86527 1.79671 7.94694 3.25509V6.41937C7.94694 7.11273 7.8211 7.24023 7.54193 7.24023C6.79857 7.24023 4.99434 4.56431 3.92514 1.5017C3.7093 0.907513 3.49845 0.667505 2.9376 0.667505H0.750026C0.125838 0.667505 0 0.955015 0 1.27669C0 1.84505 0.743359 4.67098 3.45679 8.40444C5.26518 10.9529 7.81194 12.3337 10.1287 12.3337C11.5212 12.3337 11.6912 12.0271 11.6912 11.4995C11.6912 9.06446 11.5654 8.83445 12.2629 8.83445C12.5863 8.83445 13.143 8.99446 14.443 10.2237C15.9289 11.6812 16.1731 12.3337 17.0048 12.3337H19.1915C19.8149 12.3337 20.1307 12.0271 19.949 11.422C19.5332 10.1495 16.7231 7.53191 16.5964 7.3569Z" fill="white"/>
</svg>
