<svg width="18" height="18" viewBox="0 0 18 18" fill="none" xmlns="http://www.w3.org/2000/svg">
<path d="M12.6373 0H5.36166C2.40497 0 0 2.4055 0 5.36229V12.6377C0 15.5945 2.40497 18 5.36166 18H12.6373C15.594 18 18 15.5945 18 12.6377V5.36229C18 2.4055 15.594 0 12.6373 0ZM16.1883 12.6377C16.1883 14.5992 14.5992 16.1892 12.6373 16.1892H5.36166C3.40083 16.1892 1.81065 14.5992 1.81065 12.6377V5.36229C1.81065 3.40083 3.40083 1.81076 5.36166 1.81076H12.6373C14.5992 1.81076 16.1883 3.40083 16.1883 5.36229V12.6377Z" fill="white"/>
<path d="M8.99985 4.3446C6.43299 4.3446 4.34435 6.43303 4.34435 9C4.34435 11.567 6.43299 13.6555 8.99985 13.6555C11.5667 13.6555 13.6554 11.5671 13.6554 9C13.6554 6.43303 11.5667 4.3446 8.99985 4.3446ZM8.99985 11.8446C7.42885 11.8446 6.15499 10.5711 6.15499 9C6.15499 7.42899 7.42885 6.15536 8.99985 6.15536C10.5709 6.15536 11.8436 7.42899 11.8436 9C11.8436 10.5711 10.5709 11.8446 8.99985 11.8446Z" fill="white"/>
<path d="M13.664 5.49496C14.2807 5.49496 14.7802 4.99554 14.7802 4.37938C14.7802 3.76334 14.2807 3.26391 13.664 3.26391C13.0484 3.26391 12.5489 3.76334 12.5489 4.37938C12.5489 4.99554 13.0484 5.49496 13.664 5.49496Z" fill="white"/>
</svg>
