<svg width="100" height="101" viewBox="0 0 100 101" fill="none" xmlns="http://www.w3.org/2000/svg">
<path d="M72.7273 19.0195C72.7273 17.7695 71.7045 16.7467 70.4545 16.7467C69.2045 16.7467 68.1818 17.7695 68.1818 19.0195C68.1818 24.1899 67.0076 25.6483 65.2841 26.5195C62.3295 23.3945 57.1023 22.8074 51.1553 22.8074H31.8182C30.9848 22.8074 30.303 23.4892 30.303 24.3225V37.1634C30.303 42.5043 34.8485 44.777 42.3864 44.777H57.5758C63.2197 44.777 67.803 46.2922 67.803 49.7013C67.803 53.1104 63.2197 54.6255 57.5758 54.6255H33.3333C32.5 54.6255 31.8182 53.9437 31.8182 53.1104V45.5725C31.8182 45.1748 31.5341 44.8149 31.1364 44.777C30.6818 44.7392 30.303 45.0801 30.303 45.5346V63.7164C30.303 64.5498 30.9848 65.2316 31.8182 65.2316H53.0303C62.2348 65.2316 69.697 63.8111 69.697 53.868V50.8755C69.697 45.5346 65.1515 43.2619 57.6136 43.2619H42.4242C36.7803 43.2619 32.197 41.7467 32.197 38.3377C32.197 34.9286 36.7803 33.4134 42.4242 33.4134H55.7008C61.3447 33.4134 65.928 34.9286 65.928 38.3377C65.928 39.0952 65.7008 39.7581 65.303 40.3263C65.2083 40.4589 65.1705 40.6104 65.1705 40.7808C65.1705 41.5384 66.1364 41.8604 66.5909 41.2543C67.4053 40.1748 67.8409 38.8111 67.8409 37.1634V34.171C67.8409 31.349 67.2348 29.2089 66.1553 27.599C70.1326 25.3831 72.7273 22.5233 72.7273 19.0195Z" fill="white"/>
<path d="M19.8864 78.3566C19.8864 79.2089 19.3939 79.7013 18.8068 79.777L18.6553 79.796V79.9096L18.8068 79.9286C19.4886 80.0233 20.0379 80.6861 20.0379 81.4437V81.7089C20.0379 82.4664 19.4886 83.2808 18.5417 83.2808H16.6667V76.652H18.3902C19.2235 76.652 19.8864 77.296 19.8864 78.1483V78.3566ZM18.2386 79.6445C18.6553 79.6445 18.75 79.3225 18.75 78.4702V78.2051C18.75 77.3528 18.6553 77.0687 18.2386 77.0687H17.7841V79.6255H18.2386V79.6445ZM18.9015 81.2733C18.9015 80.421 18.6553 80.0801 18.2386 80.0801H17.7841V82.8452H18.3333C18.7689 82.8452 18.9015 82.5233 18.9015 81.6899V81.2733Z" fill="white"/>
<path d="M23.447 76.6331H24.1477L25.7197 83.2619H24.5644L24.1288 81.3869H23.0871L22.7462 83.2619H22.2917L23.447 76.6331ZM23.447 79.2278L23.1439 80.9513H24.0152L23.6174 79.2278L23.5795 78.849H23.4659L23.447 79.2278Z" fill="white"/>
<path d="M29.9053 76.652C30.8333 76.652 31.5152 77.3907 31.5152 78.243V78.3945C31.5152 79.2467 30.8902 79.8717 30.0758 79.9664V80.0801C30.6439 80.1369 31.0985 80.5536 31.1932 80.9892L31.7045 83.2998H30.5492L30 80.8187C29.9053 80.3452 29.8106 80.2127 29.4886 80.2127H29.2992V83.2998H28.1818V76.671H29.9053V76.652ZM30.4167 78.2998C30.4167 77.4475 30.2273 77.0687 29.8106 77.0687H29.3371V79.7392H29.8485C30.2462 79.7392 30.4167 79.3604 30.4167 78.5081V78.2998Z" fill="white"/>
<path d="M37.5947 78.3566C37.5947 79.2089 37.1023 79.7013 36.5151 79.777L36.3636 79.796V79.9096L36.5151 79.9286C37.197 80.0233 37.7462 80.6861 37.7462 81.4437V81.7089C37.7462 82.4664 37.197 83.2808 36.25 83.2808H34.375V76.652H36.0985C36.9318 76.652 37.5947 77.296 37.5947 78.1483V78.3566ZM35.947 79.6445C36.3636 79.6445 36.4583 79.3225 36.4583 78.4702V78.2051C36.4583 77.3528 36.3636 77.0687 35.947 77.0687H35.4924V79.6255H35.947V79.6445ZM36.6098 81.2733C36.6098 80.421 36.3636 80.0801 35.947 80.0801H35.4924V82.8452H36.0417C36.4773 82.8452 36.6098 82.5233 36.6098 81.6899V81.2733Z" fill="white"/>
<path d="M41.5341 76.652H40.4167V83.2808H41.5341V76.652Z" fill="white"/>
<path d="M46.9318 76.652V77.0877H45.4924V79.6634H46.7235V80.099H45.4924V82.8452H46.9318V83.2808H44.375V76.652H46.9318Z" fill="white"/>
<path d="M54.5644 81.2543L53.3712 78.8869C53.2008 78.5649 53.125 78.243 53.125 77.9399C53.125 77.1066 53.7121 76.5384 54.5455 76.5384C55.0568 76.5384 55.5682 76.7657 55.9091 77.1445L55.5871 77.4664C55.3598 77.2202 55.0189 77.0498 54.7348 77.0498C54.3939 77.0498 54.1856 77.277 54.1856 77.6558C54.1856 77.8452 54.2424 78.0536 54.3561 78.2619L55.8523 81.2922C55.9848 81.5763 56.0606 81.8414 56.0606 82.0687C56.0606 82.8263 55.3788 83.3755 54.4508 83.3755C53.9773 83.3755 53.4849 83.224 53.0682 82.9399L53.2955 82.5611C53.6364 82.7505 54.053 82.8642 54.3371 82.8642C54.7159 82.8642 54.9242 82.6558 54.9242 82.277C54.9242 82.0119 54.8106 81.7278 54.5644 81.2543Z" fill="white"/>
<path d="M61.4962 77.0877H60.2652V83.2808H59.1477V77.0877H57.9167V76.652H61.4962V77.0877Z" fill="white"/>
<path d="M64.9053 76.652V81.8036C64.9053 82.5233 65.1705 82.902 65.6629 82.902C66.2121 82.902 66.5152 82.4096 66.5152 81.6142V76.652H66.9697V81.6331C66.9697 82.7505 66.4394 83.3755 65.4924 83.3755C64.4508 83.3755 63.7879 82.599 63.7879 81.3869V76.652H64.9053Z" fill="white"/>
<path d="M69.7538 76.652H71.4773C72.4242 76.652 73.0682 77.4096 73.0682 78.5081V81.4627C73.0682 82.5043 72.4053 83.2998 71.5341 83.2998H69.7538V76.652ZM71.3636 82.8452C71.7614 82.8452 71.9697 82.4475 71.9697 81.7467V78.1672C71.9697 77.4854 71.7235 77.0877 71.2689 77.0877H70.8333V82.8452H71.3636Z" fill="white"/>
<path d="M76.9318 76.652H75.8144V83.2808H76.9318V76.652Z" fill="white"/>
<path d="M79.7159 78.4513C79.7159 77.3149 80.4545 76.5384 81.5341 76.5384C82.6136 76.5384 83.3333 77.3149 83.3333 78.4513V81.368C83.3333 82.5611 82.6136 83.3566 81.5341 83.3566C80.4545 83.3566 79.7348 82.5611 79.7348 81.368V78.4513H79.7159ZM80.8523 81.993C80.8523 82.5611 81.1364 82.921 81.553 82.921C81.9508 82.921 82.2348 82.5611 82.2348 81.993V77.921C82.2348 77.3528 81.9697 76.993 81.553 76.993C81.1364 76.993 80.8523 77.3717 80.8523 77.921V81.993Z" fill="white"/>
<path d="M92.4242 1.59523C95.7765 1.59523 98.4848 4.30356 98.4848 7.65584V92.5043C98.4848 95.8566 95.7765 98.5649 92.4242 98.5649H7.57576C4.22348 98.5649 1.51515 95.8566 1.51515 92.5043V7.65584C1.51515 4.30356 4.22348 1.59523 7.57576 1.59523H92.4242ZM92.4242 0.0800781H7.57576C3.39015 0.0800781 0 3.47023 0 7.65584V92.5043C0 96.6899 3.39015 100.08 7.57576 100.08H92.4242C96.6098 100.08 100 96.6899 100 92.5043V7.65584C100 3.47023 96.6098 0.0800781 92.4242 0.0800781Z" fill="white"/>
</svg>
