<svg width="105" height="50" viewBox="0 0 105 50" fill="none" xmlns="http://www.w3.org/2000/svg">
<path d="M63.25 15.95L63.025 15.9V15.75L63.25 15.725C64.125 15.6 64.85 14.875 64.85 13.6V13.275C64.85 12 63.875 11.025 62.65 11.025H60.075V20.975H62.85C64.225 20.975 65.05 19.75 65.05 18.6V18.225C65.075 17.075 64.225 16.1 63.25 15.95ZM61.75 11.675H62.425C63.075 11.675 63.2 12.125 63.2 13.375V13.75C63.2 15.025 63.05 15.5 62.425 15.5H61.75V11.675ZM63.4 18.575C63.4 19.825 63.2 20.325 62.55 20.325H61.75V16.175H62.425C63.05 16.175 63.4 16.7 63.4 17.975V18.575Z" fill="black"/>
<path d="M70.15 11L68.4 20.975H69.075L69.575 18.15H71.125L71.775 20.975H73.475L71.175 11H70.15ZM69.7 17.5L70.15 14.9L70.2 14.325H70.375L70.425 14.9L71 17.5H69.7Z" fill="black"/>
<path d="M80 16.15V15.975C81.2 15.85 82.15 14.9 82.15 13.625V13.4C82.15 12.125 81.125 11 79.75 11H77.225V20.95H78.875V16.325H79.15C79.65 16.325 79.775 16.525 79.925 17.225L80.75 20.95H82.45L81.65 17.5C81.525 16.85 80.85 16.225 80 16.15ZM79.625 15.675H78.85V11.675H79.55C80.175 11.675 80.475 12.25 80.475 13.525V13.85C80.475 15.1 80.225 15.675 79.625 15.675Z" fill="black"/>
<path d="M89.525 15.95L89.3 15.9V15.75L89.525 15.725C90.4 15.6 91.125 14.875 91.125 13.6V13.275C91.125 12 90.15 11.025 88.925 11.025H86.35V20.975H89.125C90.5 20.975 91.325 19.75 91.325 18.6V18.225C91.35 17.075 90.525 16.1 89.525 15.95ZM88.025 11.675H88.7C89.35 11.675 89.475 12.125 89.475 13.375V13.75C89.475 15.025 89.325 15.5 88.7 15.5H88.025V11.675ZM89.7 18.575C89.7 19.825 89.5 20.325 88.85 20.325H88.025V16.175H88.7C89.325 16.175 89.675 16.7 89.675 17.975V18.575H89.7Z" fill="black"/>
<path d="M97.025 11.025H95.35V20.975H97.025V11.025Z" fill="black"/>
<path d="M105 11.675V11.025H101.2V20.975H105V20.325H102.875V16.225H104.7V15.55H102.875V11.675H105Z" fill="black"/>
<path d="M61.925 31.325C61.775 31 61.675 30.7 61.675 30.425C61.675 29.85 62 29.525 62.5 29.525C62.925 29.525 63.425 29.775 63.775 30.15L64.25 29.675C63.75 29.125 63 28.775 62.225 28.775C61 28.775 60.125 29.65 60.125 30.875C60.125 31.325 60.25 31.8 60.5 32.275L62.275 35.825C62.65 36.55 62.8 36.975 62.8 37.375C62.8 37.95 62.475 38.25 61.925 38.25C61.5 38.25 60.875 38.075 60.375 37.8L60.025 38.35C60.65 38.775 61.375 39 62.075 39C63.45 39 64.475 38.175 64.475 37.05C64.475 36.7 64.375 36.3 64.175 35.875L61.925 31.325Z" fill="black"/>
<path d="M67.225 29.55H69.05V38.85H70.725V29.55H72.55V28.9H67.225V29.55Z" fill="black"/>
<path d="M80 36.35C80 37.55 79.55 38.275 78.725 38.275C78 38.275 77.6 37.7 77.6 36.625V28.875H75.925V36C75.925 37.8 76.925 38.975 78.475 38.975C79.875 38.975 80.675 38.025 80.675 36.35V28.875H80V36.35Z" fill="black"/>
<path d="M87.375 28.9H84.8V38.85H87.45C88.75 38.85 89.725 37.675 89.725 36.1V31.675C89.725 30.025 88.775 28.9 87.375 28.9ZM88.1 36.575C88.1 37.625 87.775 38.225 87.2 38.225H86.425V29.575H87.075C87.725 29.575 88.1 30.175 88.1 31.2V36.575Z" fill="black"/>
<path d="M95.5 28.9H93.825V38.85H95.5V28.9Z" fill="black"/>
<path d="M102.3 28.75C100.7 28.75 99.6 29.925 99.6 31.625V36C99.6 37.8 100.675 39 102.275 39C103.875 39 104.95 37.8 104.95 36V31.6C104.975 29.9 103.9 28.75 102.3 28.75ZM103.3 36.925C103.3 37.775 102.9 38.325 102.3 38.325C101.675 38.325 101.275 37.775 101.275 36.925V30.825C101.275 29.975 101.7 29.425 102.3 29.425C102.9 29.425 103.3 29.975 103.3 30.825V36.925Z" fill="black"/>
<path d="M45 0H5C2.25 0 0 2.25 0 5V45C0 47.75 2.25 50 5 50H45C47.75 50 50 47.75 50 45V5C50 2.25 47.75 0 45 0ZM49 45C49 47.2 47.2 49 45 49H5C2.8 49 1 47.2 1 45V5C1 2.8 2.8 1 5 1H45C47.2 1 49 2.8 49 5V45Z" fill="black"/>
<path d="M38.5 7C37.675 7 37 7.675 37 8.5C37 11.9 36.225 12.875 35.1 13.45C33.15 11.4 29.7 11 25.775 11H13C12.45 11 12 11.45 12 12V20.475C12 24 15 25.5 19.975 25.5H30C33.725 25.5 36.75 26.5 36.75 28.75C36.75 31 33.725 32 30 32H14C13.45 32 13 31.55 13 31V26.025C13 25.775 12.8 25.525 12.55 25.5C12.25 25.475 12 25.7 12 26V38C12 38.55 12.45 39 13 39H27C33.075 39 38 38.05 38 31.5V29.525C38 26 35 24.5 30.025 24.5H20C16.275 24.5 13.25 23.5 13.25 21.25C13.25 19 16.275 18 20 18H28.75C32.475 18 35.5 19 35.5 21.25C35.5 21.75 35.35 22.175 35.075 22.55C35.025 22.625 34.975 22.75 34.975 22.85C34.975 23.35 35.6 23.575 35.9 23.175C36.45 22.45 36.725 21.575 36.725 20.475V18.5C36.725 16.625 36.325 15.225 35.625 14.15C38.275 12.7 40 10.825 40 8.5C40 7.675 39.325 7 38.5 7Z" fill="black"/>
</svg>
